  0
SECTION
  2
BLOCKS
  0
ENDSEC
  0
SECTION
  2
ENTITIES
  0
LINE
  8
0
 10
-55
 11
-55
 20
-50
 21
50
  0
LINE
  8
0
 10
-55
 11
-54.904
 20
50
 21
50.975
  0
LINE
  8
0
 10
-54.904
 11
-54.619
 20
50.975
 21
51.913
  0
LINE
  8
0
 10
-54.619
 11
-54.157
 20
51.913
 21
52.778
  0
LINE
  8
0
 10
-54.157
 11
-53.536
 20
52.778
 21
53.536
  0
LINE
  8
0
 10
-53.536
 11
-52.778
 20
53.536
 21
54.157
  0
LINE
  8
0
 10
-52.778
 11
-51.913
 20
54.157
 21
54.619
  0
LINE
  8
0
 10
-51.913
 11
-50.975
 20
54.619
 21
54.904
  0
LINE
  8
0
 10
-50.975
 11
-50
 20
54.904
 21
55
  0
LINE
  8
0
 10
-50
 11
50
 20
55
 21
55
  0
LINE
  8
0
 10
50
 11
50.975
 20
55
 21
54.904
  0
LINE
  8
0
 10
50.975
 11
51.913
 20
54.904
 21
54.619
  0
LINE
  8
0
 10
51.913
 11
52.778
 20
54.619
 21
54.157
  0
LINE
  8
0
 10
52.778
 11
53.536
 20
54.157
 21
53.536
  0
LINE
  8
0
 10
53.536
 11
54.157
 20
53.536
 21
52.778
  0
LINE
  8
0
 10
54.157
 11
54.619
 20
52.778
 21
51.913
  0
LINE
  8
0
 10
54.619
 11
54.904
 20
51.913
 21
50.975
  0
LINE
  8
0
 10
54.904
 11
55
 20
50.975
 21
50
  0
LINE
  8
0
 10
55
 11
55
 20
50
 21
-50
  0
LINE
  8
0
 10
55
 11
54.904
 20
-50
 21
-50.975
  0
LINE
  8
0
 10
54.904
 11
54.619
 20
-50.975
 21
-51.913
  0
LINE
  8
0
 10
54.619
 11
54.157
 20
-51.913
 21
-52.778
  0
LINE
  8
0
 10
54.157
 11
53.536
 20
-52.778
 21
-53.536
  0
LINE
  8
0
 10
53.536
 11
52.778
 20
-53.536
 21
-54.157
  0
LINE
  8
0
 10
52.778
 11
51.913
 20
-54.157
 21
-54.619
  0
LINE
  8
0
 10
51.913
 11
50.975
 20
-54.619
 21
-54.904
  0
LINE
  8
0
 10
50.975
 11
50
 20
-54.904
 21
-55
  0
LINE
  8
0
 10
50
 11
-50
 20
-55
 21
-55
  0
LINE
  8
0
 10
-50
 11
-50.975
 20
-55
 21
-54.904
  0
LINE
  8
0
 10
-50.975
 11
-51.913
 20
-54.904
 21
-54.619
  0
LINE
  8
0
 10
-51.913
 11
-52.778
 20
-54.619
 21
-54.157
  0
LINE
  8
0
 10
-52.778
 11
-53.536
 20
-54.157
 21
-53.536
  0
LINE
  8
0
 10
-53.536
 11
-54.157
 20
-53.536
 21
-52.778
  0
LINE
  8
0
 10
-54.157
 11
-54.619
 20
-52.778
 21
-51.913
  0
LINE
  8
0
 10
-54.619
 11
-54.904
 20
-51.913
 21
-50.975
  0
LINE
  8
0
 10
-54.904
 11
-55
 20
-50.975
 21
-50
  0
LINE
  8
0
 10
-51.942
 11
-51.942
 20
-50.479
 21
-49.521
  0
LINE
  8
0
 10
-51.942
 11
-51.497
 20
-49.521
 21
-48.674
  0
LINE
  8
0
 10
-51.497
 11
-50.709
 20
-48.674
 21
-48.13
  0
LINE
  8
0
 10
-50.709
 11
-49.759
 20
-48.13
 21
-48.015
  0
LINE
  8
0
 10
-49.759
 11
-48.864
 20
-48.015
 21
-48.354
  0
LINE
  8
0
 10
-48.864
 11
-48.229
 20
-48.354
 21
-49.071
  0
LINE
  8
0
 10
-48.229
 11
-48
 20
-49.071
 21
-50
  0
LINE
  8
0
 10
-48
 11
-48.229
 20
-50
 21
-50.929
  0
LINE
  8
0
 10
-48.229
 11
-48.864
 20
-50.929
 21
-51.646
  0
LINE
  8
0
 10
-48.864
 11
-49.759
 20
-51.646
 21
-51.985
  0
LINE
  8
0
 10
-49.759
 11
-50.709
 20
-51.985
 21
-51.87
  0
LINE
  8
0
 10
-50.709
 11
-51.497
 20
-51.87
 21
-51.326
  0
LINE
  8
0
 10
-51.497
 11
-51.942
 20
-51.326
 21
-50.479
  0
LINE
  8
0
 10
-51.942
 11
-51.942
 20
49.521
 21
50.479
  0
LINE
  8
0
 10
-51.942
 11
-51.497
 20
50.479
 21
51.326
  0
LINE
  8
0
 10
-51.497
 11
-50.709
 20
51.326
 21
51.87
  0
LINE
  8
0
 10
-50.709
 11
-49.759
 20
51.87
 21
51.985
  0
LINE
  8
0
 10
-49.759
 11
-48.864
 20
51.985
 21
51.646
  0
LINE
  8
0
 10
-48.864
 11
-48.229
 20
51.646
 21
50.929
  0
LINE
  8
0
 10
-48.229
 11
-48
 20
50.929
 21
50
  0
LINE
  8
0
 10
-48
 11
-48.229
 20
50
 21
49.071
  0
LINE
  8
0
 10
-48.229
 11
-48.864
 20
49.071
 21
48.354
  0
LINE
  8
0
 10
-48.864
 11
-49.759
 20
48.354
 21
48.015
  0
LINE
  8
0
 10
-49.759
 11
-50.709
 20
48.015
 21
48.13
  0
LINE
  8
0
 10
-50.709
 11
-51.497
 20
48.13
 21
48.674
  0
LINE
  8
0
 10
-51.497
 11
-51.942
 20
48.674
 21
49.521
  0
LINE
  8
0
 10
48.058
 11
48.058
 20
-50.479
 21
-49.521
  0
LINE
  8
0
 10
48.058
 11
48.503
 20
-49.521
 21
-48.674
  0
LINE
  8
0
 10
48.503
 11
49.291
 20
-48.674
 21
-48.13
  0
LINE
  8
0
 10
49.291
 11
50.241
 20
-48.13
 21
-48.015
  0
LINE
  8
0
 10
50.241
 11
51.136
 20
-48.015
 21
-48.354
  0
LINE
  8
0
 10
51.136
 11
51.771
 20
-48.354
 21
-49.071
  0
LINE
  8
0
 10
51.771
 11
52
 20
-49.071
 21
-50
  0
LINE
  8
0
 10
52
 11
51.771
 20
-50
 21
-50.929
  0
LINE
  8
0
 10
51.771
 11
51.136
 20
-50.929
 21
-51.646
  0
LINE
  8
0
 10
51.136
 11
50.241
 20
-51.646
 21
-51.985
  0
LINE
  8
0
 10
50.241
 11
49.291
 20
-51.985
 21
-51.87
  0
LINE
  8
0
 10
49.291
 11
48.503
 20
-51.87
 21
-51.326
  0
LINE
  8
0
 10
48.503
 11
48.058
 20
-51.326
 21
-50.479
  0
LINE
  8
0
 10
48.058
 11
48.058
 20
49.521
 21
50.479
  0
LINE
  8
0
 10
48.058
 11
48.503
 20
50.479
 21
51.326
  0
LINE
  8
0
 10
48.503
 11
49.291
 20
51.326
 21
51.87
  0
LINE
  8
0
 10
49.291
 11
50.241
 20
51.87
 21
51.985
  0
LINE
  8
0
 10
50.241
 11
51.136
 20
51.985
 21
51.646
  0
LINE
  8
0
 10
51.136
 11
51.771
 20
51.646
 21
50.929
  0
LINE
  8
0
 10
51.771
 11
52
 20
50.929
 21
50
  0
LINE
  8
0
 10
52
 11
51.771
 20
50
 21
49.071
  0
LINE
  8
0
 10
51.771
 11
51.136
 20
49.071
 21
48.354
  0
LINE
  8
0
 10
51.136
 11
50.241
 20
48.354
 21
48.015
  0
LINE
  8
0
 10
50.241
 11
49.291
 20
48.015
 21
48.13
  0
LINE
  8
0
 10
49.291
 11
48.503
 20
48.13
 21
48.674
  0
LINE
  8
0
 10
48.503
 11
48.058
 20
48.674
 21
49.521
  0
ENDSEC
  0
SECTION
  2
OBJECTS
  0
DICTIONARY
  0
ENDSEC
  0
EOF
