  0
SECTION
  2
BLOCKS
  0
ENDSEC
  0
SECTION
  2
ENTITIES
  0
LINE
  8
0
 10
-42.5
 11
-42.5
 20
-37.5
 21
37.5
  0
LINE
  8
0
 10
-42.5
 11
-42.404
 20
37.5
 21
38.475
  0
LINE
  8
0
 10
-42.404
 11
-42.119
 20
38.475
 21
39.413
  0
LINE
  8
0
 10
-42.119
 11
-41.657
 20
39.413
 21
40.278
  0
LINE
  8
0
 10
-41.657
 11
-41.036
 20
40.278
 21
41.036
  0
LINE
  8
0
 10
-41.036
 11
-40.278
 20
41.036
 21
41.657
  0
LINE
  8
0
 10
-40.278
 11
-39.413
 20
41.657
 21
42.119
  0
LINE
  8
0
 10
-39.413
 11
-38.475
 20
42.119
 21
42.404
  0
LINE
  8
0
 10
-38.475
 11
-37.5
 20
42.404
 21
42.5
  0
LINE
  8
0
 10
-37.5
 11
37.5
 20
42.5
 21
42.5
  0
LINE
  8
0
 10
37.5
 11
38.475
 20
42.5
 21
42.404
  0
LINE
  8
0
 10
38.475
 11
39.413
 20
42.404
 21
42.119
  0
LINE
  8
0
 10
39.413
 11
40.278
 20
42.119
 21
41.657
  0
LINE
  8
0
 10
40.278
 11
41.036
 20
41.657
 21
41.036
  0
LINE
  8
0
 10
41.036
 11
41.657
 20
41.036
 21
40.278
  0
LINE
  8
0
 10
41.657
 11
42.119
 20
40.278
 21
39.413
  0
LINE
  8
0
 10
42.119
 11
42.404
 20
39.413
 21
38.475
  0
LINE
  8
0
 10
42.404
 11
42.5
 20
38.475
 21
37.5
  0
LINE
  8
0
 10
42.5
 11
42.5
 20
37.5
 21
-37.5
  0
LINE
  8
0
 10
42.5
 11
42.404
 20
-37.5
 21
-38.475
  0
LINE
  8
0
 10
42.404
 11
42.119
 20
-38.475
 21
-39.413
  0
LINE
  8
0
 10
42.119
 11
41.657
 20
-39.413
 21
-40.278
  0
LINE
  8
0
 10
41.657
 11
41.036
 20
-40.278
 21
-41.036
  0
LINE
  8
0
 10
41.036
 11
40.278
 20
-41.036
 21
-41.657
  0
LINE
  8
0
 10
40.278
 11
39.413
 20
-41.657
 21
-42.119
  0
LINE
  8
0
 10
39.413
 11
38.475
 20
-42.119
 21
-42.404
  0
LINE
  8
0
 10
38.475
 11
37.5
 20
-42.404
 21
-42.5
  0
LINE
  8
0
 10
37.5
 11
-37.5
 20
-42.5
 21
-42.5
  0
LINE
  8
0
 10
-37.5
 11
-38.475
 20
-42.5
 21
-42.404
  0
LINE
  8
0
 10
-38.475
 11
-39.413
 20
-42.404
 21
-42.119
  0
LINE
  8
0
 10
-39.413
 11
-40.278
 20
-42.119
 21
-41.657
  0
LINE
  8
0
 10
-40.278
 11
-41.036
 20
-41.657
 21
-41.036
  0
LINE
  8
0
 10
-41.036
 11
-41.657
 20
-41.036
 21
-40.278
  0
LINE
  8
0
 10
-41.657
 11
-42.119
 20
-40.278
 21
-39.413
  0
LINE
  8
0
 10
-42.119
 11
-42.404
 20
-39.413
 21
-38.475
  0
LINE
  8
0
 10
-42.404
 11
-42.5
 20
-38.475
 21
-37.5
  0
LINE
  8
0
 10
-39.442
 11
-39.442
 20
-37.979
 21
-37.021
  0
LINE
  8
0
 10
-39.442
 11
-38.997
 20
-37.021
 21
-36.174
  0
LINE
  8
0
 10
-38.997
 11
-38.209
 20
-36.174
 21
-35.63
  0
LINE
  8
0
 10
-38.209
 11
-37.259
 20
-35.63
 21
-35.515
  0
LINE
  8
0
 10
-37.259
 11
-36.364
 20
-35.515
 21
-35.854
  0
LINE
  8
0
 10
-36.364
 11
-35.729
 20
-35.854
 21
-36.571
  0
LINE
  8
0
 10
-35.729
 11
-35.5
 20
-36.571
 21
-37.5
  0
LINE
  8
0
 10
-35.5
 11
-35.729
 20
-37.5
 21
-38.429
  0
LINE
  8
0
 10
-35.729
 11
-36.364
 20
-38.429
 21
-39.146
  0
LINE
  8
0
 10
-36.364
 11
-37.259
 20
-39.146
 21
-39.485
  0
LINE
  8
0
 10
-37.259
 11
-38.209
 20
-39.485
 21
-39.37
  0
LINE
  8
0
 10
-38.209
 11
-38.997
 20
-39.37
 21
-38.826
  0
LINE
  8
0
 10
-38.997
 11
-39.442
 20
-38.826
 21
-37.979
  0
LINE
  8
0
 10
-39.442
 11
-39.442
 20
37.021
 21
37.979
  0
LINE
  8
0
 10
-39.442
 11
-38.997
 20
37.979
 21
38.826
  0
LINE
  8
0
 10
-38.997
 11
-38.209
 20
38.826
 21
39.37
  0
LINE
  8
0
 10
-38.209
 11
-37.259
 20
39.37
 21
39.485
  0
LINE
  8
0
 10
-37.259
 11
-36.364
 20
39.485
 21
39.146
  0
LINE
  8
0
 10
-36.364
 11
-35.729
 20
39.146
 21
38.429
  0
LINE
  8
0
 10
-35.729
 11
-35.5
 20
38.429
 21
37.5
  0
LINE
  8
0
 10
-35.5
 11
-35.729
 20
37.5
 21
36.571
  0
LINE
  8
0
 10
-35.729
 11
-36.364
 20
36.571
 21
35.854
  0
LINE
  8
0
 10
-36.364
 11
-37.259
 20
35.854
 21
35.515
  0
LINE
  8
0
 10
-37.259
 11
-38.209
 20
35.515
 21
35.63
  0
LINE
  8
0
 10
-38.209
 11
-38.997
 20
35.63
 21
36.174
  0
LINE
  8
0
 10
-38.997
 11
-39.442
 20
36.174
 21
37.021
  0
LINE
  8
0
 10
35.558
 11
35.558
 20
-37.979
 21
-37.021
  0
LINE
  8
0
 10
35.558
 11
36.003
 20
-37.021
 21
-36.174
  0
LINE
  8
0
 10
36.003
 11
36.791
 20
-36.174
 21
-35.63
  0
LINE
  8
0
 10
36.791
 11
37.741
 20
-35.63
 21
-35.515
  0
LINE
  8
0
 10
37.741
 11
38.636
 20
-35.515
 21
-35.854
  0
LINE
  8
0
 10
38.636
 11
39.271
 20
-35.854
 21
-36.571
  0
LINE
  8
0
 10
39.271
 11
39.5
 20
-36.571
 21
-37.5
  0
LINE
  8
0
 10
39.5
 11
39.271
 20
-37.5
 21
-38.429
  0
LINE
  8
0
 10
39.271
 11
38.636
 20
-38.429
 21
-39.146
  0
LINE
  8
0
 10
38.636
 11
37.741
 20
-39.146
 21
-39.485
  0
LINE
  8
0
 10
37.741
 11
36.791
 20
-39.485
 21
-39.37
  0
LINE
  8
0
 10
36.791
 11
36.003
 20
-39.37
 21
-38.826
  0
LINE
  8
0
 10
36.003
 11
35.558
 20
-38.826
 21
-37.979
  0
LINE
  8
0
 10
35.558
 11
35.558
 20
37.021
 21
37.979
  0
LINE
  8
0
 10
35.558
 11
36.003
 20
37.979
 21
38.826
  0
LINE
  8
0
 10
36.003
 11
36.791
 20
38.826
 21
39.37
  0
LINE
  8
0
 10
36.791
 11
37.741
 20
39.37
 21
39.485
  0
LINE
  8
0
 10
37.741
 11
38.636
 20
39.485
 21
39.146
  0
LINE
  8
0
 10
38.636
 11
39.271
 20
39.146
 21
38.429
  0
LINE
  8
0
 10
39.271
 11
39.5
 20
38.429
 21
37.5
  0
LINE
  8
0
 10
39.5
 11
39.271
 20
37.5
 21
36.571
  0
LINE
  8
0
 10
39.271
 11
38.636
 20
36.571
 21
35.854
  0
LINE
  8
0
 10
38.636
 11
37.741
 20
35.854
 21
35.515
  0
LINE
  8
0
 10
37.741
 11
36.791
 20
35.515
 21
35.63
  0
LINE
  8
0
 10
36.791
 11
36.003
 20
35.63
 21
36.174
  0
LINE
  8
0
 10
36.003
 11
35.558
 20
36.174
 21
37.021
  0
ENDSEC
  0
SECTION
  2
OBJECTS
  0
DICTIONARY
  0
ENDSEC
  0
EOF
